<svg width="200" height="201" viewBox="0 0 200 201" fill="none" xmlns="http://www.w3.org/2000/svg">
<g filter="url(#filter0_d_247_2)">
<path d="M90.2 83.5124C97.0279 89.9938 136.142 114.422 136.142 114.422C170.401 91.9914 164.354 72.9428 155.973 65.8652C155.973 65.8652 117.167 39.9707 114.338 37.8312C109.949 34.5121 105.727 32.8043 101.076 33.1862C85.0464 33.8343 82.5422 50.6289 81.8641 59.3132C81.5641 72.6981 83.372 77.0309 90.2 83.5124Z" fill="url(#paint0_linear_247_2)"/>
</g>
<g filter="url(#filter1_d_247_2)">
<path d="M111.534 142.208C104.634 135.727 65.1049 111.301 65.1049 111.301C30.4803 133.732 36.5907 152.781 45.0606 159.858C45.0606 159.858 84.2783 185.751 87.1373 187.89C91.5725 191.209 95.8395 192.917 100.54 192.534C116.74 191.886 119.272 175.091 119.958 166.407C120.262 153.022 118.435 148.689 111.534 142.208Z" fill="url(#paint1_linear_247_2)"/>
</g>
<g filter="url(#filter2_d_247_2)">
<path d="M120.901 54.2144C123.05 65.1028 126.079 75.2593 114.923 81.9965C101.294 90.8763 19.6984 127.855 48.0831 161.95C23.3706 146.556 23.3254 136.103 23.2927 128.533C23.2927 128.533 22.4566 101.141 23.1461 94.6496C23.8355 88.1581 31.9183 77.0687 37.7565 72.2372C43.5946 67.4057 88.1786 35.972 95.7038 34.1371C103.229 32.3021 106.186 32.9761 111.496 36.2316C118.159 40.3155 119.338 46.2932 120.848 53.9463L120.901 54.2144Z" fill="#00F0FF"/>
</g>
<g filter="url(#filter3_d_247_2)">
<path d="M80.065 171.51C77.9156 160.622 76.4722 147.978 84.7007 142.896C108.187 126.83 181.267 97.8692 152.883 63.7748C177.595 79.1681 177.641 89.6215 177.673 97.1913C177.673 97.1913 178.509 124.583 177.82 131.075C177.13 137.566 169.048 148.656 163.209 153.487C157.371 158.319 112.88 190.048 105.354 191.883C97.8292 193.718 94.7803 192.748 89.4695 189.493C82.8072 185.409 81.6278 179.431 80.1179 171.778L80.065 171.51Z" fill="#00F0FF"/>
</g>
<g filter="url(#filter4_d_247_2)">
<rect x="74.1279" y="31.3994" width="22.2176" height="38.0354" rx="11.1088" transform="rotate(-47.8211 74.1279 31.3994)" fill="url(#paint2_linear_247_2)"/>
<rect x="128.396" y="0.876953" width="22.0255" height="57.7958" rx="11.0128" transform="rotate(46.0039 128.396 0.876953)" fill="url(#paint3_linear_247_2)"/>
</g>
<defs>
<filter id="filter0_d_247_2" x="77.833" y="33.1338" width="88.6553" height="89.2881" filterUnits="userSpaceOnUse" color-interpolation-filters="sRGB">
<feFlood flood-opacity="0" result="BackgroundImageFix"/>
<feColorMatrix in="SourceAlpha" type="matrix" values="0 0 0 0 0 0 0 0 0 0 0 0 0 0 0 0 0 0 127 0" result="hardAlpha"/>
<feOffset dy="4"/>
<feGaussianBlur stdDeviation="2"/>
<feComposite in2="hardAlpha" operator="out"/>
<feColorMatrix type="matrix" values="0 0 0 0 0 0 0 0 0 0 0 0 0 0 0 0 0 0 0.25 0"/>
<feBlend mode="normal" in2="BackgroundImageFix" result="effect1_dropShadow_247_2"/>
<feBlend mode="normal" in="SourceGraphic" in2="effect1_dropShadow_247_2" result="shape"/>
</filter>
<filter id="filter1_d_247_2" x="34.4775" y="111.301" width="89.5117" height="89.2861" filterUnits="userSpaceOnUse" color-interpolation-filters="sRGB">
<feFlood flood-opacity="0" result="BackgroundImageFix"/>
<feColorMatrix in="SourceAlpha" type="matrix" values="0 0 0 0 0 0 0 0 0 0 0 0 0 0 0 0 0 0 127 0" result="hardAlpha"/>
<feOffset dy="4"/>
<feGaussianBlur stdDeviation="2"/>
<feComposite in2="hardAlpha" operator="out"/>
<feColorMatrix type="matrix" values="0 0 0 0 0 0 0 0 0 0 0 0 0 0 0 0 0 0 0.25 0"/>
<feBlend mode="normal" in2="BackgroundImageFix" result="effect1_dropShadow_247_2"/>
<feBlend mode="normal" in="SourceGraphic" in2="effect1_dropShadow_247_2" result="shape"/>
</filter>
<filter id="filter2_d_247_2" x="18.873" y="33.1338" width="108.093" height="136.816" filterUnits="userSpaceOnUse" color-interpolation-filters="sRGB">
<feFlood flood-opacity="0" result="BackgroundImageFix"/>
<feColorMatrix in="SourceAlpha" type="matrix" values="0 0 0 0 0 0 0 0 0 0 0 0 0 0 0 0 0 0 127 0" result="hardAlpha"/>
<feOffset dy="4"/>
<feGaussianBlur stdDeviation="2"/>
<feComposite in2="hardAlpha" operator="out"/>
<feColorMatrix type="matrix" values="0 0 0 0 0 0 0 0 0 0 0 0 0 0 0 0 0 0 0.25 0"/>
<feBlend mode="normal" in2="BackgroundImageFix" result="effect1_dropShadow_247_2"/>
<feBlend mode="normal" in="SourceGraphic" in2="effect1_dropShadow_247_2" result="shape"/>
</filter>
<filter id="filter3_d_247_2" x="74.3945" y="63.7744" width="107.698" height="137.028" filterUnits="userSpaceOnUse" color-interpolation-filters="sRGB">
<feFlood flood-opacity="0" result="BackgroundImageFix"/>
<feColorMatrix in="SourceAlpha" type="matrix" values="0 0 0 0 0 0 0 0 0 0 0 0 0 0 0 0 0 0 127 0" result="hardAlpha"/>
<feOffset dy="4"/>
<feGaussianBlur stdDeviation="2"/>
<feComposite in2="hardAlpha" operator="out"/>
<feColorMatrix type="matrix" values="0 0 0 0 0 0 0 0 0 0 0 0 0 0 0 0 0 0 0.25 0"/>
<feBlend mode="normal" in2="BackgroundImageFix" result="effect1_dropShadow_247_2"/>
<feBlend mode="normal" in="SourceGraphic" in2="effect1_dropShadow_247_2" result="shape"/>
</filter>
<filter id="filter4_d_247_2" x="74.71" y="5.43652" width="68.4258" height="54.9189" filterUnits="userSpaceOnUse" color-interpolation-filters="sRGB">
<feFlood flood-opacity="0" result="BackgroundImageFix"/>
<feColorMatrix in="SourceAlpha" type="matrix" values="0 0 0 0 0 0 0 0 0 0 0 0 0 0 0 0 0 0 127 0" result="hardAlpha"/>
<feOffset dy="4"/>
<feGaussianBlur stdDeviation="2"/>
<feComposite in2="hardAlpha" operator="out"/>
<feColorMatrix type="matrix" values="0 0 0 0 0 0 0 0 0 0 0 0 0 0 0 0 0 0 0.25 0"/>
<feBlend mode="normal" in2="BackgroundImageFix" result="effect1_dropShadow_247_2"/>
<feBlend mode="normal" in="SourceGraphic" in2="effect1_dropShadow_247_2" result="shape"/>
</filter>
<linearGradient id="paint0_linear_247_2" x1="59.1396" y1="18.1753" x2="169.608" y2="129.38" gradientUnits="userSpaceOnUse">
<stop stop-color="#00F0FF"/>
<stop offset="1" stop-color="#0099A3"/>
</linearGradient>
<linearGradient id="paint1_linear_247_2" x1="142.922" y1="207.543" x2="32.4725" y2="95.1754" gradientUnits="userSpaceOnUse">
<stop stop-color="#00F0FF"/>
<stop offset="1" stop-color="#0099A3"/>
</linearGradient>
<linearGradient id="paint2_linear_247_2" x1="85.2367" y1="31.3994" x2="86.5015" y2="56.5424" gradientUnits="userSpaceOnUse">
<stop stop-color="#00E7B9"/>
<stop offset="1" stop-color="#00E7B9"/>
</linearGradient>
<linearGradient id="paint3_linear_247_2" x1="139.408" y1="0.876953" x2="139.408" y2="58.6728" gradientUnits="userSpaceOnUse">
<stop stop-color="#00E7B9"/>
<stop offset="1" stop-color="#00E7B9"/>
</linearGradient>
</defs>
</svg>
